<?xml version="1.0" encoding="UTF-8"?>
<svg xmlns="http://www.w3.org/2000/svg" version="1.1" viewBox="0 0 369 351.5">
  <defs>
    <style>
      .cls-1 {
        fill: #1176bd;
      }
    </style>
  </defs>
  <!-- Generator: Adobe Illustrator 28.6.0, SVG Export Plug-In . SVG Version: 1.2.0 Build 709)  -->
  <g>
    <g id="Layer_1">
      <g id="Layer_1-2" data-name="Layer_1">
        <g>
          <path class="cls-1" d="M255.8,146.6s-11.2-35.7-61.6-69.9c-50.4-34.2-75.1-35.6-75.8-36.1,0,0-1.8-.4-1.8-1.7s1.8-1.2,1.8-1.2c0,0,32.1,4.3,42.6,2.9s14.7-20.1,16.1-25.3.3-2.9.8-2.9,6.3,3.4,6.3,3.4c0,0,33.7,15.6,58.1,55.6,24.4,40.1,13.5,75.2,13.5,75.2Z"/>
          <path class="cls-1" d="M245.6,223.9s25.3-27.6,29.7-88.3-6.7-82.9-6.7-83.6c0,0-.5-1.8.6-2.4s1.9.9,1.9.9c0,0,12.3,29.9,18.8,38.3s24.8,2.7,29.9,1.3,2.7-1.2,2.9-.8.3,7.1.3,7.1c0,0,3.4,37-19.1,78.1s-58.3,49.3-58.3,49.3h0Z"/>
          <path class="cls-1" d="M174.3,253.2s36.6,8,91.3-18.8c54.7-26.8,68.2-47.5,68.9-47.9,0,0,1.3-1.3,2.3-.7s.1,2.1.1,2.1c0,0-19.6,25.7-23.6,35.5s10.2,22.8,14,26.5,2.4,1.7,2.2,2.1-6,3.8-6,3.8c0,0-30.3,21.6-77.1,22.8-46.9,1.3-72-25.6-72-25.6v.2Z"/>
          <path class="cls-1" d="M113.2,205.2s11.3,35.7,61.8,69.7c50.5,34.1,75.2,35.4,75.9,35.9,0,0,1.8.4,1.8,1.7s-1.8,1.2-1.8,1.2c0,0-32.1-4.2-42.6-2.7-9.2,1.3-14.7,20.2-16,25.3s-.3,2.9-.8,2.9-6.3-3.3-6.3-3.3c0,0-33.8-15.5-58.2-55.5-24.5-40-13.7-75.1-13.7-75.1h0Z"/>
          <path class="cls-1" d="M123,128.7s-25.3,27.6-29.6,88.3c-4.3,60.7,6.8,82.9,6.8,83.6,0,0,.5,1.8-.6,2.4s-1.9-.9-1.9-.9c0,0-12.4-29.9-18.9-38.3-5.7-7.3-24.8-2.6-29.9-1.3s-2.7,1.2-2.9.8-.3-7.1-.3-7.1c0,0-3.4-37,19-78.2,22.4-41.2,58.3-49.4,58.3-49.4h0Z"/>
          <path class="cls-1" d="M195.4,99.6s-36.5-8.3-91.4,17.9c-54.9,26.3-68.7,46.9-69.4,47.2,0,0-1.3,1.3-2.3.7-1.1-.6,0-2.1,0-2.1,0,0,19.9-25.5,23.9-35.3,3.6-8.6-10-22.9-13.7-26.6s-2.4-1.7-2.1-2.2,6.1-3.8,6.1-3.8c0,0,30.5-21.3,77.3-22.1,46.9-.8,71.7,26.3,71.7,26.3Z"/>
        </g>
      </g>
    </g>
  </g>
</svg>