<?xml version="1.0" encoding="UTF-8"?>
<svg xmlns="http://www.w3.org/2000/svg" version="1.1" viewBox="0 0 754.9 351.5">
  <defs>
    <style>
      .cls-1 {
        fill: #1176bd;
      }
    </style>
  </defs>
  <!-- Generator: Adobe Illustrator 28.6.0, SVG Export Plug-In . SVG Version: 1.2.0 Build 709)  -->
  <g>
    <g id="Layer_1">
      <g>
        <path d="M478.5,84.1l-83.3-.5-20.9,170.8h90.9c0-.1,75,.3,83.1-82.7,8.1-83-69.8-87.7-69.8-87.7ZM462.9,210.4l-30.3.4,10.6-83.4,24.6.4s28.6-2.1,28.6,37.9-33.3,44.6-33.3,44.6Z"/>
        <path d="M690,162.5s28.4-5.9,28.4-39.1c-1.3-41.8-49.4-39.8-49.4-39.8h-93.8s-20.5,170.8-20.5,170.8h104.3s57.4,0,60.4-48.7c-.6-36.8-29.3-43.3-29.3-43.3ZM665.2,199.3c-1.7,15-15.1,14.6-15.1,14.6h-39.5l4.2-31.5,35.7-.2s16.3,2,14.6,17ZM665.7,137.6c-1,11.5-14.1,12.9-14.1,12.9h-33.2l2.7-25.6,32.8-.3s12.8,1.4,11.8,12.9Z"/>
      </g>
      <g>
        <path class="cls-1" d="M261.9,147.1s-11.2-35.7-61.6-69.9c-50.4-34.2-75.1-35.6-75.8-36.1,0,0-1.8-.4-1.8-1.7s1.8-1.2,1.8-1.2c0,0,32.1,4.3,42.6,2.9s14.7-20.1,16.1-25.3.3-2.9.8-2.9,6.3,3.4,6.3,3.4c0,0,33.7,15.6,58.1,55.6,24.4,40.1,13.5,75.2,13.5,75.2Z"/>
        <path class="cls-1" d="M251.7,224.4s25.3-27.6,29.7-88.3c4.4-60.7-6.7-82.9-6.7-83.6,0,0-.5-1.8.6-2.4s1.9.9,1.9.9c0,0,12.3,29.9,18.8,38.3s24.8,2.7,29.9,1.3,2.7-1.2,2.9-.8.3,7.1.3,7.1c0,0,3.4,37-19.1,78.1-22.5,41.1-58.3,49.3-58.3,49.3Z"/>
        <path class="cls-1" d="M180.4,253.7s36.6,8,91.3-18.8c54.7-26.8,68.2-47.5,68.9-47.9,0,0,1.3-1.3,2.3-.7s.1,2.1.1,2.1c0,0-19.6,25.7-23.6,35.5s10.2,22.8,14,26.5,2.4,1.7,2.2,2.1-6,3.8-6,3.8c0,0-30.3,21.6-77.1,22.8-46.9,1.3-72-25.6-72-25.6Z"/>
        <path class="cls-1" d="M119.3,205.7s11.3,35.7,61.8,69.7c50.5,34.1,75.2,35.4,75.9,35.9,0,0,1.8.4,1.8,1.7s-1.8,1.2-1.8,1.2c0,0-32.1-4.2-42.6-2.7-9.2,1.3-14.7,20.2-16,25.3s-.3,2.9-.8,2.9-6.3-3.3-6.3-3.3c0,0-33.8-15.5-58.2-55.5-24.5-40-13.7-75.1-13.7-75.1Z"/>
        <path class="cls-1" d="M129.1,129.2s-25.3,27.6-29.6,88.3c-4.3,60.7,6.8,82.9,6.8,83.6,0,0,.5,1.8-.6,2.4-1.1.6-1.9-.9-1.9-.9,0,0-12.4-29.9-18.9-38.3-5.7-7.3-24.8-2.6-29.9-1.3s-2.7,1.2-2.9.8-.3-7.1-.3-7.1c0,0-3.4-37,19-78.2,22.4-41.2,58.3-49.4,58.3-49.4Z"/>
        <path class="cls-1" d="M201.5,100.1s-36.5-8.3-91.4,17.9c-54.9,26.3-68.7,46.9-69.4,47.2,0,0-1.3,1.3-2.3.7-1.1-.6-.1-2.1-.1-2.1,0,0,19.9-25.5,23.9-35.3,3.6-8.6-10-22.9-13.7-26.6s-2.4-1.7-2.1-2.2,6.1-3.8,6.1-3.8c0,0,30.5-21.3,77.3-22.1,46.9-.8,71.7,26.3,71.7,26.3Z"/>
      </g>
      <g>
        <path d="M390.1,278.6h-13.4l-5,29.5h13.6c10.2,0,16.2-4.1,18-15,.3-1.6.4-3,.4-4.3,0-7.2-4.2-10.2-13.7-10.2ZM392,293.1c-1.1,6.9-2.1,7.5-5.5,7.5h-2.5l2.5-14.6h2.5c2.4,0,3.5.5,3.5,3s-.2,2.3-.5,4.1Z"/>
        <path d="M426,278.6l-3.4,19.7c-.4,2.1-1.2,2.9-3.7,2.9s-2.9-.6-2.9-2,0-.6,0-.9l3.4-19.7h-11l-3.3,19.5c-.1.7-.2,1.5-.2,2.1,0,5.5,4.1,8.5,12.7,8.5s14.7-3.7,15.9-10.6l3.3-19.5h-10.9Z"/>
        <path d="M459.4,278.6l-2,12.2c0,.5-.2,1.1-.2,1.6h0l-7.8-13.8h-9.1l-5,29.5h9.5l2.2-13.3c0-.5.1-1.1.1-1.6h0l9,14.9h7.8l5-29.5h-9.5Z"/>
        <path d="M506.7,278.6l-8.5,16.5,2.8-16.5h-11l-1.9,10.9h-6.5l1.9-10.9h-11l-5,29.5h11l1.9-11.2h6.5l-1.9,11.2h18l2-4.8h8l.3,4.8h12.2l-5.5-29.5h-13.4ZM507.8,296.5l3.4-8.4c.2-.6.4-1.1.6-1.5h0c0,.6,0,1,0,1.6l.6,8.3h-4.7Z"/>
        <polygon points="570.3 297.5 584.1 297.5 585.1 291.7 571.2 291.7 570.3 297.5"/>
        <path d="M618.2,285.1c0-3.9-3.6-6.5-11-6.5h-14.8l-5,29.5h14.5c10,0,15.1-4.1,15.1-10.2s-1.5-4.5-4.4-5.4h0c3.2-1.3,5.5-3.7,5.5-7.4ZM603.3,301.2h-4.1l.9-5h4c1.6,0,2.1.4,2.1,1.5,0,3-1,3.6-2.8,3.6ZM604.9,290.1h-3.8l.8-4.5h3.8c1.3,0,1.8.4,1.8,1.4,0,2.5-.8,3.1-2.6,3.1Z"/>
        <path d="M640.1,278.6l-3.4,19.7c-.4,2.1-1.2,2.9-3.7,2.9s-2.9-.6-2.9-2,0-.6,0-.9l3.4-19.7h-11l-3.3,19.5c-.1.7-.2,1.5-.2,2.1,0,5.5,4.1,8.5,12.7,8.5s14.7-3.7,15.9-10.6l3.3-19.5h-10.9Z"/>
        <path d="M662.2,287.4c0-1.1.7-1.8,3.9-1.8s4.9.4,7.6,1l2.4-7.1c-2.6-.9-6.2-1.4-9.5-1.4-10,0-15.1,5.1-15.1,11.1s11.8,7.4,11.8,10.3-1.1,1.8-3.5,1.8-5.9-.7-8.7-1.9l-2.6,7.2c2.8,1.3,6.6,2,10.4,2,8.9,0,15.2-4.3,15.2-11.1s-11.8-7.3-11.8-10.1Z"/>
        <polygon points="697.2 278.6 695.4 289.4 688.9 289.4 690.7 278.6 679.8 278.6 674.8 308.1 685.7 308.1 687.6 296.9 694.2 296.9 692.2 308.1 703.2 308.1 708.2 278.6 697.2 278.6"/>
        <path d="M546.4,293.1c-.3.5-.6,1-.8,1.5h0c0-.5-.2-1-.3-1.6l-3.5-14.4h-12l-3.1,18.4,2,11.2h5.7l2-11.6c0-.5.1-1.1.2-1.6h0l3.1,13.2h7l7.7-13.4h0c-.2.6-.3,1.1-.4,1.7l-2,11.7h10l5-29.5h-12l-8.6,14.5Z"/>
      </g>
    </g>
  </g>
</svg>